# xmcd
#
# Track frame offsets:
#	150
#	15535
#	34018
#	52719
#	71242
#	86005
#	100733
#	117814
#	133315
#	150459
#	161397
#	180373
#	201667
#	220764
#
# Disc length: 3188 seconds
#
# Revision: 2
# Processed by: cddbd v1.5.2PL0 Copyright (c) Steve Scherf et al.
# Submitted via: audiograbber 1.83.01
#
DISCID=b50c720e
DTITLE=Star Disc - SD 134
DYEAR=1900
DGENRE=Karaoke
TTITLE0=Jo Dee Messina,  - Delicious Surprise (I Believe It)
TTITLE1=Dierks Bentley,  - Come A Little Closer
TTITLE2=Trace Adkins,  - Arlington
TTITLE3=Keith Urban,  - Better Life
TTITLE4=Phil Vassar,  - Good Ole Days
TTITLE5=Tracy Lawrence,  - Used To The Pain
TTITLE6=Randy Travis,  - Angels
TTITLE7=Terri Clark,  - She Didn't Have Time
TTITLE8=Chris Cagle,  - Miss Me Baby
TTITLE9=Clint Black,  - Rainbow In The Rain
TTITLE10=Kevin Fowler,  - Don't Touch My Willie
TTITLE11=Chely Wright,  - The River, 
TTITLE12=Sawyer Brown,  - They Don't Understand
TTITLE13=Alison Krauss,  - Goodbye Is All We Have
EXTD=
EXTT0=
EXTT1=
EXTT2=
EXTT3=
EXTT4=
EXTT5=
EXTT6=
EXTT7=
EXTT8=
EXTT9=
EXTT10=
EXTT11=
EXTT12=
EXTT13=
PLAYORDER=
